<svg width="766" height="436" xmlns="http://www.w3.org/2000/svg" xmlns:xlink="http://www.w3.org/1999/xlink">
    <defs>
        <path id="a" d="M0 .044h620.341v77.585H0z"/>
    </defs>
    <g fill="none" fill-rule="evenodd">
        <path fill="#E2E5E9" d="M51.89 420.059l281.04-9.184L542.631 436l78.133-57.77H766l-11.927-23.294L516.568 334 0 372.59z"/>
        <path fill="#EBDEC5" d="M541.597 134.902L436.47 156.146l-66.564 58.592-20.065 50.164 133.552-2.468 73.563-10.315 79.885-20.92z"/>
        <path fill="#CC7251" d="M43.952 274.559l-14.11 88.59 42.026 36.753 358.97-22.602 93.547-20.75 75.002-55.869 94.455-80.779-140.926 30.117-69.92 13.17-284.13 4.692-22.501 1.663z"/>
        <path fill="#C5664D" d="M480.842 263.555l118.679 37.347 94.32-81-140.304 29.866z"/>
        <path fill="#FFF" d="M333.825 2.902l-2.197 5.188-10.786 9.79 10.395 7.022 16.605-15.511"/>
        <path fill="#E9E9EA" d="M370.838.902l-36.996 1.671 14.006 6.329 22.994-8z"/>
        <path fill="#FFF" d="M294.842 23.214l18.233-1.312 3.767 8-12.221-.303"/>
        <path fill="#E9E9EA" d="M303.842 29.23l-28 19.672 18.415-26"/>
        <path fill="#C0BEB9" d="M303.842 28.902l-8.831 11.719-19.17 8.281"/>
        <path fill="#E9E9EA" d="M330.842 24.737l-10.251-7.314-5.902-4.521-4.847.304.138 2.469 6.618 13.767 11.071 3.46M327.842 33.077l4.086 5.825 9.914-5.031-10.877-8.969z"/>
        <path fill="#E3B76D" d="M304.842 13.902l4.86.187.14 2.813z"/>
        <path fill="#9B493F" d="M216.842 270.893l9.667-27.217 16.473-1.774 4.86 30z"/>
        <path d="M176.14 268.977l-29.527 7.488s-10.617 8.522-8.596 8.522h27.557l27.316 3.661 15.201 2.763 50.178-16.796-15.897-2.088-25.104-2.192-41.129-1.358z" fill="#BA6757"/>
        <path fill="#9B4A41" d="M194.818 269.593l-18.679-.616 11.068-22.534 12.98-.583 1.775 4.568"/>
        <path fill="#BF594C" d="M201.962 250.428l22.562-.816-7.256 20.723-22.45-.742"/>
        <path fill="#CC7052" d="M261.203 267.564l-11.64-25.161-6.573-1.004 4.782 29.944z"/>
        <path fill="#B55232" d="M265.42 268.148l-23.048 4.379 5.293-3.97z"/>
        <path fill="#D1895D" d="M265.42 268.148l-8.812-3.833-8.943 4.243z"/>
        <path fill="#9B493F" d="M242.372 272.527l15.897 2.088 10.38-2.474-3.23-3.993z"/>
        <path fill="#9C483D" d="M212.397 277.439l5.853-6.267 8.063.471 6.453.403 5.612 4.419-7.927 2.206z"/>
        <path fill="#CC7251" d="M248.758 272.953l-11.093-4.406-4.899 3.499 5.611 4.419z"/>
        <path fill="#D18959" d="M218.25 271.172l8.724-3.33 10.691.705-4.899 3.499-6.453-.403z"/>
        <path fill="#863E35" d="M466.388 225.692l13.407-3.827-3.004-6.585z"/>
        <path fill="#CC7251" d="M487.608 204.464l-21.22 21.228 6.134-27.704 12.463-24.36-1.37 14.38z"/>
        <path fill="#BF594A" d="M516.155 175.678l-14.146-3.882-17.025 1.833-1.37 14.38 3.994 16.455z"/>
        <path fill="#CC7251" d="M535.063 157.2l-11.02 10.804-7.888 7.674-14.146-3.882-17.024 1.833 25.42-12.834z"/>
        <path fill="#863E35" d="M530.602 170.944l4.462-13.744-11.02 10.804z"/>
        <path fill="#9C483D" d="M519.227 189.976l-9.738-7.575 6.666-6.723 7.888-7.674 6.56 2.94z"/>
        <path fill="#863E35" d="M491.84 200.196l7.089 10.548 20.298-20.768-9.738-7.576z"/>
        <path fill="#9C483D" d="M476.791 215.28l3.004 6.585 19.134-11.121-7.09-10.548zM517.992 213.872l16.744 20.48 4.022 17.614 3.907-1.169-5.094-18.639-18.64-23.792"/>
        <path fill="#693028" d="M518.931 208.365l-16.874-18.47-2.01 2.026 17.945 21.95"/>
        <path fill="#9C483D" d="M484.875 174.776l-2.048-1.415 2.259-2.605 2.385 2.83z"/>
        <path fill="#6A332C" d="M483.787 208.31l18.07-14.175 17.712-21.744-3.414 3.287-16.108 16.243z"/>
        <path fill="#332D3A" d="M567.515 212.55l32.475 26.693 9.76-2.034-30.192-23.344z"/>
        <path fill="#43517A" d="M571.645 213.223l-5.31-81.077 54.122 16.942-15.761 70.143z"/>
        <path fill="#656F8A" d="M539.737 141.539l26.598-9.393 5.31 81.077-24.73 3.019z"/>
        <path fill="#43517A" d="M566.335 132.146L543.94 124.4l3.643-10.188 74.754 29.617-1.88 5.258z"/>
        <path fill="#556181" d="M569.823 185.408l-88.412 77.254 7.367-.14 81.495-70.259zM566.335 132.146l-26.598 9.393-35.395-5.018zM504.342 136.521l39.598-12.12 22.395 7.745z"/>
        <path fill="#3D384C" d="M571.645 213.223l-29.99 40.293-52.877 9.006 81.495-70.26"/>
        <path fill="#3B354C" d="M570.273 192.263l38.45 7.72-4.027 19.248-33.05-6.008"/>
        <path fill="#656F8A" d="M504.342 136.521l2.482-6.618 40.759-15.69-3.643 10.188z"/>
        <path fill="#332D3A" d="M573.941 140.897l.376 7.775 38.303 10.617 1.819-6.53z"/>
        <path fill="#CA654A" d="M583.435 146.277l1.55.863-1.559.842-.86 1.549-.84-1.562-1.547-.857 1.557-.843.861-1.552zM607.92 153.281l1.55.863-1.559.843-.86 1.548-.84-1.562-1.547-.857 1.558-.842.86-1.553z"/>
        <path fill="#C5664D" d="M466.573 312.844l132.817-12.83 28.133 12.178-38.814 45.334-158.181 18.86-358.85 22.755-64.836-47.934 35.31-38.078 237.468-3.252z"/>
        <path fill="#9C483D" d="M502.009 171.796l14.146 3.882-28.547 28.786-3.994-16.456z"/>
        <path fill="#332D3A" d="M575.234 151.721l36.318 9.869-.81 2.482-35.508-9.944z"/>
        <path fill="#BA6757" d="M197.798 283.266l51.081-2.9 34.03 2.9-17.62 1.613z"/>
        <path fill="#351019" d="M670.521 279.016l23.951 33.244 7.699-5.159-26.548-34.124zM562.856 331.989l124.85-139.47 5.893 6.605-123.92 139.09z"/>
        <path fill="#685468" d="M687.705 192.52h-2.959l-123.35 137.176 1.46 2.293z"/>
        <path fill="#E3B76D" d="M598.53 301.98l49.254-11.346-50.276-7.341-52.121 3.91z"/>
        <path fill="#553C52" d="M608.79 300.95l113.348 14.553 6.824 11.738-143.75-20.057-2.533-.855zM688.045 256.856l40.917 70.385 9.387-5.516-42.8-73.45z"/>
        <path fill="#553C52" d="M590.168 359.82l140.41-165.469 5.893 6.605-139.479 165.09z"/>
        <path fill="#351019" d="M696.032 249.103l2.29 3.929-7.636 8.368-2.462-3.076zM647.763 305.953l3.586.46-.406 9.9-10.707-1.451z"/>
        <path fill="#EBDEC5" d="M674.685 259.127l47.976-56.401-42.293.4-46.485 52.734z"/>
        <path fill="#DCAB6C" d="M611.21 272.96l-13.702 10.333 50.276 7.341 9.073-10.626"/>
        <path fill="#E3B76D" d="M656.857 280.008l17.828-20.88-40.802-3.268-22.673 17.1M692.036 200.877l-11.668 2.249 40.105-.38 2.188-2.57z"/>
        <path fill="#DCAB6C" d="M545.387 287.203l-7.465 5.207 40.751 12.969 15.3-4.665z"/>
        <path fill="#553C52" d="M627.523 312.192l7.28-8.81-47.132-4.817-4.992 7.764z"/>
        <path fill="#685468" d="M584.174 298.565h3.497l-4.992 7.763-4.006-.95z"/>
        <path fill="#E3B76D" d="M686.213 203.07l-46.655 53.244 3.39.272 49.363-53.573z"/>
        <path stroke="#E3B76D" stroke-width=".5" d="M686.213 203.07l-46.655 53.244 3.39.272 49.363-53.573z"/>
        <path fill="#E3B76D" d="M699.811 202.942l-50.66 54.171 3.39.271 52.678-54.475z"/>
        <path stroke="#E3B76D" stroke-width=".5" d="M699.811 202.942l-50.66 54.171 3.39.271 52.678-54.475z"/>
        <g fill="#CC7251">
            <path d="M697.086 200.762l-10.873 2.308 6.098-.058 9.203-2.352zM642.947 256.586l-21.397 17.786-11.32 10.778-53.666 5.485-8.322 5.059-4.023-1.28 7.277-5.512 54.667-4.345 11.867-10.513 21.528-17.73M706.357 200.55l-6.546 2.392 5.502-.065 7.2-2.468z"/>
            <path d="M652.541 257.384l-20.228 18.784-11.142 10.335-54.707 7-8.245 5.366-4.406-1.402 7.583-5.696 55.709-5.862 11.687-10.069 20.36-18.727M719.152 200.256l-6.96 2.568 5.4-.05 4.707-1.63.362-.968z"/>
            <path d="M665.459 258.19l-19.377 19.765-11.321 10.778-53.554 8.424-9.324 5.99-4.407-1.401 8.663-6.321 54.555-7.286 11.867-10.513 19.508-19.708"/>
        </g>
        <path fill="#E3B76D" d="M712.192 202.824l-50.292 55.28 3.385.27 52.22-55.586z"/>
        <path stroke="#E3B76D" stroke-width=".5" d="M712.192 202.824l-50.292 55.28 3.385.27 52.22-55.586z"/>
        <path fill="#685468" d="M730.578 194.351h-2.959L588.71 357.526l1.46 2.294z"/>
        <path fill="#C5664D" d="M501.83 268.977l-34.252 3.069 7.123 1.929 35.323-2.676z"/>
        <path fill="#BA6757" d="M282 277.426l4.384-2.206 7.26 1.656 5.341-1.656 2.876 2.333-4.52 1.569h-7.259zM162.327 301.965l13.386-3.903 7.259 1.657 11.846-2.824 2.876 2.334-11.024 2.736h-7.26z"/>
        <path fill="#C5664D" d="M605.464 300.383l40.19-9.749-10.85 12.748z"/>
        <path fill="#DCAB6C" d="M605.464 300.383l40.19-9.749-5.428 6.376-22.017 4.676z"/>
        <path fill="#C5664D" d="M361.197 379.393l112.037 11.742 99.21-33.095z"/>
        <g transform="translate(6.842 321.512)">
            <mask id="b" fill="#fff">
                <use xlink:href="#a"/>
            </mask>
            <path fill="#693028" mask="url(#b)" d="M15.046 14.27l91.188 16.695 262.015 1.903 98 13.702L620.342.044l-38.474 35.97-22.918 2.732-92.557 30.876-103.789-10.857L64.836 77.63 0 29.695z"/>
        </g>
        <path fill="#CC7251" d="M225.812 304.98l55.626 3.854 40.019-.288-62.492 14.223-58.015-12.191zM496.418 276.875l30.51-5.535 16.744 5.535-15.883 2.233z"/>
        <path fill="#C5664D" d="M519.013 278.928l-13.552-3.796-14.087 1.2-2.324 3.313z"/>
    </g>
</svg>
