<?xml version="1.0" encoding="UTF-8"?>
<svg viewBox="0 0 20 16" version="1.1" xmlns="http://www.w3.org/2000/svg" xmlns:xlink="http://www.w3.org/1999/xlink">
    <g id="Single-Sign-On" stroke="none" stroke-width="1" fill="none" fill-rule="evenodd">
        <g id="01-3-2---SSO---New-Password---Changed" transform="translate(-397.000000, -499.000000)" fill="#828F9D">
            <g id="Group-12" transform="translate(60.000000, 269.000000)">
                <g id="Group-3" transform="translate(20.000000, 95.000000)">
                    <g id="Group">
                        <g id="Field" transform="translate(1.000000, 120.000000)">
                            <g id="Icon/Eye---Disabled" transform="translate(316.000000, 13.000000)">
                                <path d="M4.3006806,12.3511354 L3.178817,13.2596027 L0.833333333,10.1618991 L4.82169805,4.80697573 L10.4969919,3.33333333 L13.9035119,4.57491594 L12.5723658,5.65285684 L10.4280199,4.87130191 L5.64786751,6.11251257 L2.6374193,10.1544497 L4.3006806,12.3511354 Z M8.22036039,14.5385395 L10.4321186,15.1280047 L14.6515084,13.61382 L17.3329004,10.3528698 L15.8466036,8.36292948 L16.9684853,7.45444766 L19.1666667,10.3975003 L15.4847006,14.8752895 L10.4928932,16.6666667 L6.80582267,15.6840096 L8.22036039,14.5385395 Z M10.7032579,7.16643051 L7.40675153,9.83588878 L7.71040749,8.26793944 L9.42059024,7.02083589 L10.7032579,7.16643051 Z M12.7576737,10.8642956 L12.7052793,11.3190716 L11.0593643,12.9183449 L10.2211341,12.9183449 L12.7576737,10.8642956 Z M2.34722406,17.5971146 L1.29835674,16.3018713 L18.534466,2.45475673 L19.5833333,3.75 L2.34722406,17.5971146 Z" id="Combined-Shape"></path>
                            </g>
                        </g>
                    </g>
                </g>
            </g>
        </g>
    </g>
</svg>